<svg xmlns="http://www.w3.org/2000/svg" width="56" height="56" viewBox="0 0 56 56">
    <path d="M28.079.451c15.18.017 27.483 12.32 27.5 27.5 0 15.188-12.312 27.5-27.5 27.5s-27.5-12.312-27.5-27.5S12.89.451 28.079.451zm0 1.833c-14.175 0-25.667 11.492-25.667 25.667S13.904 53.618 28.08 53.618C42.247 53.6 53.729 42.12 53.746 27.95c0-14.175-11.492-25.667-25.667-25.667zm-1 9.167c.506 0 .917.41.917.917v14.666h14.666c.506 0 .917.41.917.917 0 .506-.41.917-.917.917H27.996v14.666c0 .507-.41.917-.917.917-.506 0-.917-.41-.917-.917V28.868H11.496c-.507 0-.917-.41-.917-.917 0-.506.41-.917.917-.917h14.666V12.368c0-.507.41-.917.917-.917z" opacity=".32"/>
</svg>
