<svg id="Capa_1" enable-background="new 0 0 512 512" height="512" viewBox="0 0 512 512" width="512" xmlns="http://www.w3.org/2000/svg"><g><path d="m510.252 490.007-45.022-86.515c30.355-42.853 46.712-93.934 46.712-147.524 0-141.469-114.477-255.955-255.955-255.955-141.47-.001-255.957 114.477-255.957 255.955 0 49.991 14.308 98.113 41.463 139.696l-40.283 95.433c-5.175 12.272 7.165 24.89 19.647 19.647l95.433-40.283c87.646 57.236 202.092 55.052 287.22-5.249l86.515 45.022c12.983 6.757 26.957-7.302 20.227-20.227zm-383.694-48.811c-4.293-3.019-9.791-3.518-14.437-1.53l-68.928 29.095 29.095-68.928c2.01-4.759 1.43-10.208-1.53-14.438-26.645-38.053-40.733-82.815-40.733-129.427 0-124.598 101.362-225.961 225.961-225.961 175.541 0 284.394 192.832 193.306 342.87l-16.687-32.064c62.547-129.976-32.828-280.811-176.619-280.811-108.051 0-195.966 87.905-195.966 195.966 0 143.669 150.71 239.226 280.811 176.619l32.064 16.687c-75.821 46.031-172.64 43.525-246.337-8.078zm221.292-38.774c-4.417-2.289-9.647-2.239-13.988.07-109.841 58.653-243.847-21.359-243.847-146.524 0-91.514 74.457-165.971 165.971-165.971 125.238 0 205.136 134.084 146.525 243.848-2.33 4.359-2.35 9.598-.07 13.987 53.912 103.579 11.795 22.663 59.25 113.84-89.219-46.435-11.172-5.811-113.841-59.25z"/><circle cx="255.986" cy="370.362" r="18.083"/><path d="m258.288 122.491h-4.604c-44.832 0-81.306 36.474-81.306 81.306 0 8.283 6.715 14.997 14.997 14.997 8.283 0 14.997-6.715 14.997-14.997 0-28.293 23.018-51.311 51.311-51.311h4.604c28.293 0 51.31 23.018 51.31 51.311 0 26.462-20.402 51.31-53.613 51.31-8.283 0-14.997 6.715-14.997 14.997v32.174c0 8.283 6.715 14.997 14.997 14.997s14.997-6.715 14.997-14.997v-18.167c38.823-6.113 68.61-39.802 68.61-80.315.002-44.831-36.471-81.305-81.303-81.305z"/></g></svg>