<svg id="Capa_1" enable-background="new 0 0 512 512" height="512" viewBox="0 0 512 512" width="512" xmlns="http://www.w3.org/2000/svg"><g><path d="m378 73h-19v-17c0-8.284-6.716-15-15-15h-35.032c-6.354-22.948-27.366-41-52.968-41-25.558 0-46.604 18.016-52.968 41h-35.032c-8.284 0-15 6.716-15 15v17h-19c-24.813 0-45 20.187-45 45v349c0 24.813 20.187 45 45 45h244c24.813 0 45-20.187 45-45v-349c0-24.813-20.187-45-45-45zm-195-2h33c8.284 0 15-6.716 15-15 0-14.094 11.449-26 25-26s25 11.906 25 26c0 8.284 6.716 15 15 15h33v42h-146zm210 396c0 8.271-6.729 15-15 15h-244c-8.271 0-15-6.729-15-15v-349c0-8.271 6.729-15 15-15h19v25c0 8.284 6.716 15 15 15h176c8.284 0 15-6.716 15-15v-25h19c8.271 0 15 6.729 15 15z"/><path d="m176.33 371.53c-7.664-5.054-17.593-2.152-21.55 5.409-5.888 11.027 3.511 24.136 16.15 21.771 13.423-2.813 16.212-20.066 5.4-27.18z"/><path d="m344 369h-112c-8.284 0-15 6.716-15 15s6.716 15 15 15h112c8.284 0 15-6.716 15-15s-6.716-15-15-15z"/><path d="m182.71 317.069c-1.833-8.78-10.559-13.948-19.07-11.42-8.681 2.838-12.181 11.364-9.99 18.71 2.848 8.739 11.506 12.19 18.7 9.99 7.661-2.434 11.764-9.77 10.36-17.28z"/><path d="m344 305h-112c-8.284 0-15 6.716-15 15s6.716 15 15 15h112c8.284 0 15-6.716 15-15s-6.716-15-15-15z"/><path d="m182.71 253.069c-1.876-8.987-10.824-13.92-19.06-11.42-8.583 2.745-12.238 11.354-10 18.7 2.735 8.569 11.358 12.244 18.7 10 7.664-2.435 11.763-9.775 10.36-17.28z"/><path d="m232 271h112c8.284 0 15-6.716 15-15s-6.716-15-15-15h-112c-8.284 0-15 6.716-15 15s6.716 15 15 15z"/></g></svg>