<svg xmlns="http://www.w3.org/2000/svg" width="58" height="19" viewBox="0 0 58 19">
    <path d="M57.925 2.753c-.006-.86-.43-1.663-1.14-2.158-.82-.586-1.874-.75-2.837-.443l-.105.033c-.804.16-1.524.603-2.026 1.247-.813-.557-1.842-.709-2.784-.41l-.106.033c-.688.138-1.317.481-1.803.983-.055-.046-.11-.094-.17-.138-.821-.585-1.875-.75-2.839-.442l-.104.033c-.575.117-1.111.377-1.558.756-.07-.073-.145-.142-.223-.207-.691-.56-1.6-.785-2.475-.612l-1.039.2c-1.076.197-2.067.713-2.842 1.479-.55-.803-1.47-1.28-2.45-1.269h-2.95c-.721-.003-1.42.253-1.966.72-.545-.467-1.244-.723-1.966-.72h-2.95c-.754-.007-1.483.27-2.039.775-.67-.495-1.444-.832-2.266-.985l-1.046-.2c-.874-.172-1.78.053-2.47.612-.08.065-.154.134-.224.207-.447-.379-.983-.639-1.558-.756l-.104-.033c-.964-.307-2.018-.143-2.84.442-.06.044-.113.091-.169.138-.486-.502-1.115-.845-1.803-.982l-.104-.033c-.942-.3-1.972-.149-2.786.409C5.68.788 4.96.346 4.157.185L4.054.153C3.09-.155 2.036.009 1.214.595.505 1.09.081 1.894.074 2.753v4.493C.027 7.358 0 7.48 0 7.602c-.02 4.807 3.184 9.043 7.848 10.375C10.32 18.659 19.665 19 29.008 19c9.337 0 18.674-.34 21.144-1.022 4.664-1.333 7.868-5.57 7.848-10.376 0-.122-.026-.243-.075-.355V2.753zm-9.831 1.314c.055-.657.57-1.184 1.232-1.26.034-.007.068-.015.101-.025l.155-.049c.14-.044.286-.067.433-.067.282-.002.557.085.786.249.24.16.386.423.396.709v5.033c-1.004.182-2.042.35-3.103.503V4.067zm-4.916.449c.047-.663.564-1.198 1.23-1.273.036-.007.071-.016.106-.027l.153-.048c.14-.044.285-.067.432-.067.282-.002.557.086.786.25.24.159.387.422.396.708v5.344c-.998.126-2.037.242-3.103.348V4.516zm-6.881 1.823c0-1.408 1.16-2.648 2.76-2.95l1.04-.198c.077-.015.156-.022.235-.022.27-.003.531.086.742.253.177.137.284.345.292.567v5.927c-1.662.138-3.36.25-5.07.332V6.34zm-6.882-1.863c.064-.519.534-.893 1.06-.843h2.95c.525-.05.995.324 1.06.843v5.848c-1.647.058-3.347.09-5.07.096V4.476zm-6.882 0c0-.074.013-.147.037-.217.175-.4.583-.65 1.023-.626h2.95c.525-.05.995.324 1.06.843v5.94c-1.632-.014-3.295-.053-4.957-.117l-.08-.003-.033-.001V4.476zm-5.899.04v-.527c.008-.222.115-.43.292-.567.275-.215.63-.3.974-.232l1.046.2c.67.124 1.29.432 1.79.89-.005.065-.016.13-.016.196v5.728c-1.349-.07-2.713-.156-4.086-.267V4.516zm-4.915-.457c.01-.286.157-.55.396-.709.354-.25.806-.317 1.218-.182l.153.048c.035.011.07.02.106.027.666.075 1.183.61 1.23 1.273v5.259c-1.083-.105-2.122-.22-3.103-.341V4.059zm-4.916-.435c.01-.286.157-.55.396-.71.355-.249.808-.316 1.221-.18l.153.048c.033.01.067.018.101.025.66.076 1.175.601 1.232 1.256v5.13c-1.081-.152-2.12-.316-3.103-.49v-5.08zm-4.916-.871c.01-.285.157-.549.396-.708.355-.25.808-.317 1.221-.182l.153.048c.034.01.068.02.103.026.666.075 1.184.61 1.23 1.273v5.143c-1.096-.224-2.134-.465-3.103-.719V2.753zm47.778 13.495c-4.634 1.28-36.694 1.28-41.33 0-3.199-.912-5.626-3.5-6.309-6.726 1.151.288 2.384.557 3.687.804.007.001.013.005.02.007 1.527.286 3.196.548 4.961.778h.001c1.518.203 3.184.386 4.951.544h.004c1.994.174 3.99.307 5.927.394.302.016.609.028.916.04l.08.004h.006c1.993.077 3.987.118 5.927.122h.371c2.239 0 4.443-.044 6.55-.131h.001c2.34-.098 4.67-.25 6.926-.451h.002c1.726-.158 3.392-.344 4.953-.553h.002c1.715-.227 3.383-.495 4.959-.796.007-.001.013-.005.02-.007 1.302-.249 2.539-.524 3.697-.82-.663 3.254-3.1 5.872-6.322 6.791zm6.448-8.68c-.973.262-2.011.508-3.103.735V3.21c.046-.663.564-1.198 1.23-1.273.035-.007.07-.015.103-.026l.155-.048c.14-.045.286-.067.432-.067.283-.002.558.085.787.249.239.16.386.423.396.708v4.816z" opacity=".32"/>
</svg>
