<svg xmlns="http://www.w3.org/2000/svg" width="126" height="58" viewBox="0 0 126 58">
    <g fill="#020000" fill-rule="evenodd">
        <path d="M1 41.228L126 41.228 126 40.471 1 40.471zM107.667 26.474v2.172c.556.563 1.11 1.041 1.58 1.389.982.694 3.457 1.603 6.53 1.603 2.732 0 5.08-.649 7.044-1.995 1.92-1.301 2.903-3.21 2.903-5.727 0-3.126-1.452-4.601-4.355-6.206l-8.11-4.472c-2.347-1.256-3.457-2.604-3.457-4.989 0-1.389.684-2.69 2.049-3.907 1.366-1.215 3.073-1.82 5.165-1.82s3.97.866 5.592 2.56v-2.56c-1.707-.826-3.585-1.26-5.592-1.26-2.69 0-4.952.696-6.701 2.126-1.751 1.433-2.648 3.038-2.648 4.861 0 1.692.343 2.95.982 3.863.64.91 1.708 1.822 3.202 2.819l8.28 4.601c2.306 1.258 3.46 2.823 3.46 4.645 0 1.995-.77 3.513-2.308 4.598-1.536 1.087-3.371 1.607-5.506 1.607-3.5 0-6.189-1.433-8.11-4.296v.388zM87.733 15.15c1.408-1.693 3.33-2.518 5.677-2.518 2.348 0 4.268.825 5.72 2.518 1.41 1.693 2.135 3.817 2.135 6.335 0 2.52-.725 4.602-2.135 6.293-1.452 1.694-3.372 2.563-5.72 2.563-2.347 0-4.269-.87-5.677-2.563-1.45-1.691-2.176-3.773-2.176-6.293 0-2.518.725-4.642 2.176-6.335zm-1.366 13.497c1.922 1.997 4.269 2.992 7.043 2.992s5.121-.995 7.086-2.992c1.92-1.952 2.903-4.34 2.903-7.162 0-2.82-.983-5.206-2.903-7.203-1.965-1.955-4.312-2.951-7.086-2.951s-5.121.996-7.043 2.951c-1.965 1.997-2.945 4.383-2.945 7.203 0 2.822.98 5.21 2.945 7.162zm-23.605 2.992h2.69v-12.96c0-1.7.596-3.132 1.836-4.31 1.194-1.173 2.56-1.737 4.14-1.737 3.114 0 5.59 2.605 5.59 6.31v12.697h2.135V18.323c0-1.909-.683-3.565-2.006-4.953-1.365-1.345-2.988-2.04-4.824-2.04h-.64c-2.604 0-4.653.912-6.232 2.734V1.262h-2.69l.556 1.26v27.852l-.555 1.264zm-7.385-1.256c-1.58 0-2.86-1.345-2.86-2.96v-14.79h5.977V11.33h-5.977V6.296h-2.69l.556 1.257v3.777h-2.476v1.301h2.476v13.924c0 2.743 2.049 5.083 4.994 5.083h3.117v-1.256h-3.117zm-17.97-11.407c0-1.432.51-2.69 1.578-3.826 1.07-1.085 2.178-1.65 3.416-1.65h1.238v-2.17H42.4c-2.092 0-4.013 1.694-4.995 3.733V11.33h-2.688l.554 1.258v17.786l-.554 1.264h2.688V18.975zM2.701 16.45c0-3.776 1.282-7.073 3.842-9.81 2.519-2.732 5.507-4.077 8.964-4.077 3.457 0 6.446 1.345 9.006 4.078 2.52 2.736 3.8 6.033 3.8 9.809 0 4.036-1.237 7.332-3.757 9.937-2.518 2.65-5.549 3.952-9.049 3.952-3.5 0-6.488-1.303-9.007-3.952-2.517-2.605-3.8-5.9-3.8-9.937zm-2.133 0c0 4.383 1.45 7.985 4.395 10.85 2.904 2.906 6.404 4.337 10.544 4.337 4.098 0 7.598-1.431 10.543-4.337 2.947-2.909 4.397-6.51 4.397-10.85 0-4.125-1.494-7.682-4.44-10.676-2.944-2.996-6.446-4.513-10.5-4.513-4.055 0-7.556 1.517-10.501 4.513C2.062 8.769.569 12.326.569 16.45zM124.475 50.352l-3.674 4.64-.03.038h-.475v-5.465h.525v4.678l3.676-4.64.03-.038H125v5.465h-.525v-4.678zm-5.57-.636l-1.7 2.423 2.079 2.891h-.622l-.03-.04-1.87-2.596h-1.585v2.636h-.526v-5.465h.526v2.424h1.638l1.653-2.381.03-.043h.512l-.106.151zm-9.753 4.91h3.002v-5.061h.526v5.465H105.1v-5.465h.526v5.06h3.002v-5.06h.525v5.06zm-5.993-7.149c.079.077.131.18.131.287 0 .105-.052.209-.13.285-.078.076-.187.127-.295.127-.109 0-.216-.05-.293-.127h-.001c-.079-.076-.131-.18-.131-.285 0-.106.052-.21.13-.287.08-.076.186-.127.295-.127.108 0 .217.051.294.127zm-.457 2.088h.426v5.465h-.526v-5.465h.1zm-2.596 5.368v-4.502l-2.53 3.713-.03.043h-.272l-.03-.046-2.366-3.698v4.587h-.417v-5.465h.48l.03.046 2.496 3.919 2.656-3.921.03-.044h.478v5.465h-.525v-.097zm-9.127-5.526c1.353 0 2.14 1.039 2.144 1.042l.06.08-.086.057-.164.105-.075.048-.057-.069c-.002-.002-.677-.859-1.822-.859-.636 0-1.218.262-1.634.714-.403.436-.654 1.049-.654 1.772 0 .724.25 1.337.654 1.773.416.452.998.714 1.634.714 1.356 0 2.032-1.061 2.034-1.064l.055-.08.083.053.163.106.081.052-.052.08c-.003.004-.788 1.258-2.364 1.258-.796 0-1.507-.308-2.015-.832-.496-.51-.798-1.225-.798-2.06 0-.834.302-1.549.798-2.06.508-.522 1.22-.83 2.015-.83zm-6.333 5.91l.145-.33-2.478-5.285-.064-.137h.598l.027.056 2.214 4.711 2.08-4.767h.488l-.06.134-2.495 5.695H85.1c-.303.696-.595 1.18-.909 1.492-.325.323-.674.464-1.082.464-.293 0-.533-.116-.533-.116l-.055-.027v-.426l.144.07s.196.094.444.094c.271 0 .522-.11.767-.358.258-.26.509-.674.77-1.27zm-9.712-.918c.294.243.724.385 1.282.385 1.145 0 1.942-.978 2.071-1.147V52.46c-.22-.11-1.145-.54-2.07-.54-.559 0-.99.141-1.283.384-.304.252-.463.617-.463 1.047 0 .43.16.795.463 1.047zm3.239-4.371c.412.4.64.978.64 1.69v1.95c0 .775.155 1.229.155 1.23l.055.132h-.555l-.016-.078s-.082-.361-.105-.773c-.282.3-1.064 1.01-2.13 1.01-.71 0-1.262-.182-1.645-.489-.412-.33-.626-.803-.626-1.348 0-.544.214-1.017.626-1.347.383-.307.936-.49 1.644-.49.87 0 1.737.33 2.071.473v-.27c0-.603-.176-1.077-.493-1.401v-.001c-.32-.328-.786-.505-1.36-.505-1.038 0-1.657.751-1.659.753l-.056.071-.078-.05-.162-.105-.09-.058.068-.083c.002-.003.734-.932 1.976-.932.733 0 1.328.22 1.74.62zm-4.913-.312l-1.7 2.423 2.08 2.891h-.623l-.03-.04-1.87-2.596h-1.585v2.636h-.525v-5.465h.525v2.424h1.638l1.654-2.381.03-.043h.512l-.106.151zm-6.193-2.239c.078.077.13.18.13.287 0 .105-.052.209-.13.285-.079.076-.186.127-.294.127-.109 0-.216-.05-.295-.127-.078-.076-.13-.18-.13-.285 0-.106.052-.21.13-.287.079-.076.186-.127.295-.127.108 0 .215.051.294.127zm-.457 2.088h.425v5.465h-.525v-5.465h.1zm-2.596 2.829h-3.655v2.636h-.525v-5.465h.525v2.424h3.655v-2.424h.524v5.465h-.524v-2.636zm-6.12-4.917c.079.077.131.18.131.287 0 .105-.052.209-.131.285-.078.076-.186.127-.294.127-.109 0-.216-.05-.293-.127h-.001c-.079-.076-.132-.18-.132-.285 0-.106.053-.21.132-.287.078-.076.185-.127.294-.127.108 0 .216.051.294.127zm-.457 2.088h.426v5.465h-.526v-5.465h.1zm-8.113.151l-1.698 2.423 2.004 2.79v-.145h.48c.263 0 .547-.157.776-.52.201-.32.36-.792.428-1.448l.335-3.251h3.717v5.465h-.525v-5.06h-2.688l-.316 2.865c-.089.787-.293 1.36-.565 1.75-.317.452-.727.656-1.161.656-.177 0-.425-.063-.425-.063l-.056-.026v-.122h-.548l-.03-.04-1.87-2.596h-1.586v2.636h-.524v-5.465h.524v2.424h1.639l1.653-2.381.03-.043h.512l-.106.151zM39.1 52.403h4.65v-.458h-4.65v.458zm-1.845-.009h-3.654v2.636h-.525v-5.465h.525v2.424h3.654v-2.424h.525v5.465h-.525v-2.636zm-9.633-4.934c.001.002.46.944 1.428.944s1.428-.942 1.43-.944l.036-.08.086.028.163.053.096.032-.034.092c-.001.004-.456 1.33-1.777 1.33-1.32 0-1.774-1.326-1.776-1.33l-.034-.092.097-.032.162-.053.085-.027.038.08zm2.957 2.892l-3.675 4.64-.03.038H26.4v-5.465h.525v4.678l3.675-4.64.03-.038h.474v5.465h-.525v-4.678zm-9.921 4.047c.294.243.725.385 1.282.385 1.145 0 1.942-.978 2.071-1.147V52.46c-.22-.11-1.144-.54-2.07-.54-.558 0-.99.141-1.283.384-.304.252-.463.617-.463 1.047 0 .43.16.795.463 1.047zm3.239-4.371c.412.4.64.978.64 1.69v1.95c0 .775.155 1.229.155 1.23l.054.132h-.554l-.015-.078s-.084-.361-.106-.773c-.282.3-1.064 1.01-2.13 1.01-.708 0-1.262-.182-1.645-.489-.412-.33-.626-.803-.626-1.348 0-.544.214-1.017.626-1.347.383-.307.937-.49 1.644-.49.87 0 1.737.33 2.071.473v-.27c0-.603-.176-1.077-.492-1.401v-.001c-.32-.328-.787-.505-1.36-.505-1.04 0-1.658.751-1.659.753l-.057.071-.077-.05-.163-.105-.09-.058.067-.083c.002-.003.735-.932 1.978-.932.733 0 1.327.22 1.739.62zm-5.78-.22c.4.28.612.672.612 1.066 0 .768-.67 1.104-1.06 1.236.43.132 1.223.506 1.223 1.453 0 .448-.226.88-.66 1.186-.381.268-.923.44-1.61.44-1.468 0-2.256-1.258-2.257-1.261l-.048-.08.078-.049.164-.106.082-.054.055.081c.002.003.678 1.064 1.925 1.064.543 0 .966-.134 1.26-.344.319-.228.486-.547.486-.877 0-.353-.149-.668-.438-.887-.273-.208-.675-.334-1.199-.334h-.86v-.405h.915c.415 0 .76-.124 1.005-.311.264-.201.415-.478.415-.752 0-.277-.154-.555-.437-.757-.26-.184-.63-.306-1.092-.306-1.04 0-1.715.756-1.717.759l-.058.062-.072-.047-.162-.105-.09-.058.067-.083c.002-.003.791-.932 2.032-.932.609 0 1.095.159 1.44.4zm-5.395.544l-3.674 4.64-.03.038h-.475v-5.465h.526v4.678l3.704-4.678h.475v5.465h-.526v-4.678zm-6.784-.383H3.198l-.316 2.866c-.114 1.027-.568 1.57-.81 1.79H5.94V49.97zm.874 5.061H1.52l-.102 1.597-.007.091H1v-2.092h.45c.135-.09.839-.613.962-1.81l.326-3.164.009-.087h3.718v5.06h.867v2.093h-.41l-.005-.091-.104-1.597z"/>
    </g>
</svg>
