<svg xmlns="http://www.w3.org/2000/svg" width="58" height="44" viewBox="0 0 58 44">
    <g opacity=".32">
        <path d="M57.925 26.301c-.006-.86-.43-1.663-1.14-2.158-.82-.586-1.874-.75-2.837-.442l-.105.033c-.804.16-1.524.603-2.026 1.246-.813-.557-1.842-.708-2.784-.41l-.106.034c-.688.138-1.317.48-1.803.983-.055-.047-.11-.095-.17-.138-.821-.586-1.875-.75-2.839-.442l-.104.032c-.575.117-1.111.377-1.558.756-.07-.073-.145-.142-.223-.206-.691-.56-1.6-.785-2.475-.613l-1.039.2c-1.076.197-2.067.713-2.842 1.479-.55-.803-1.47-1.279-2.45-1.268h-2.95c-.721-.004-1.42.252-1.966.72-.545-.468-1.244-.724-1.966-.72h-2.95c-.754-.007-1.483.27-2.039.775-.67-.495-1.444-.832-2.266-.985l-1.046-.201c-.874-.172-1.78.053-2.47.613-.08.064-.154.133-.224.206-.447-.379-.983-.638-1.558-.756l-.104-.032c-.964-.308-2.018-.144-2.84.442-.06.043-.113.09-.169.137-.486-.502-1.115-.844-1.803-.982l-.104-.033c-.942-.3-1.972-.148-2.786.41-.502-.644-1.222-1.087-2.026-1.247l-.103-.033c-.964-.308-2.018-.144-2.84.442-.709.495-1.133 1.299-1.14 2.158v4.494c-.048.112-.074.233-.074.355-.02 4.807 3.184 9.043 7.848 10.375 2.472.682 11.817 1.023 21.16 1.023 9.337 0 18.674-.34 21.144-1.022 4.664-1.333 7.868-5.569 7.848-10.375 0-.123-.026-.244-.075-.356v-4.494zm-9.831 1.315c.055-.657.57-1.185 1.232-1.26.034-.007.068-.016.101-.026l.155-.049c.14-.044.286-.067.433-.067.282-.001.557.086.786.25.24.159.386.422.396.708v5.034c-1.004.181-2.042.35-3.103.502v-5.092zm-4.916.448c.047-.662.564-1.198 1.23-1.272.036-.007.071-.016.106-.027l.153-.048c.14-.045.285-.067.432-.068.282-.001.557.086.786.25.24.16.387.423.396.708v5.345c-.998.125-2.037.242-3.103.348v-5.236zm-6.881 1.824c0-1.409 1.16-2.649 2.76-2.95l1.04-.2c.077-.014.156-.02.235-.021.27-.003.531.087.742.254.177.136.284.344.292.566v5.928c-1.662.138-3.36.25-5.07.332v-3.91zm-6.882-1.863c.064-.52.534-.893 1.06-.843h2.95c.525-.05.995.324 1.06.843v5.847c-1.647.058-3.347.09-5.07.096v-5.943zm-6.882 0c0-.074.013-.148.037-.218.175-.4.583-.65 1.023-.625h2.95c.525-.05.995.324 1.06.843v5.939c-1.632-.013-3.295-.052-4.957-.116l-.08-.004-.033-.001v-5.818zm-5.899.04v-.528c.008-.222.115-.43.292-.566.275-.215.63-.3.974-.233l1.046.201c.67.124 1.29.432 1.79.889-.005.066-.016.131-.016.197v5.728c-1.349-.07-2.713-.156-4.086-.268v-5.42zm-4.915-.458c.01-.285.157-.549.396-.709.354-.249.806-.317 1.218-.181l.153.048c.035.01.07.02.106.027.666.074 1.183.61 1.23 1.272v5.26c-1.083-.105-2.122-.22-3.103-.342v-5.375zm-4.916-.435c.01-.286.157-.549.396-.709.355-.25.808-.317 1.221-.18l.153.047c.033.01.067.019.101.025.66.076 1.175.601 1.232 1.257v5.13c-1.081-.152-2.12-.317-3.103-.49v-5.08zm-4.916-.87c.01-.286.157-.55.396-.709.355-.25.808-.317 1.221-.181l.153.047c.034.011.068.02.103.027.666.074 1.184.61 1.23 1.272v5.144c-1.096-.225-2.134-.465-3.103-.72v-4.88zm47.778 13.495c-4.634 1.278-36.694 1.278-41.33-.001-3.199-.912-5.626-3.5-6.309-6.725 1.151.287 2.384.557 3.687.803.007.001.013.006.02.007 1.527.287 3.196.549 4.961.779h.001c1.518.202 3.184.385 4.951.543h.004c1.994.174 3.99.307 5.927.394.302.016.609.029.916.041l.08.003h.006c1.993.077 3.987.118 5.927.123h.371c2.239 0 4.443-.044 6.55-.132h.001c2.34-.097 4.67-.25 6.926-.45l.002-.001c1.726-.158 3.392-.344 4.953-.552h.002c1.715-.228 3.383-.496 4.959-.797.007 0 .013-.005.02-.006 1.302-.25 2.539-.524 3.697-.82-.663 3.254-3.1 5.872-6.322 6.79zm6.448-8.68c-.973.262-2.011.507-3.103.734v-5.093c.046-.662.564-1.198 1.23-1.272.035-.007.07-.016.103-.027l.155-.048c.14-.044.286-.067.432-.067.283-.002.558.086.787.249.239.16.386.423.396.708v4.816zM50.152 1.923C45.678.688 38.39-.34 29.002 1.738 19.616-.34 12.324.688 7.848 1.923 3.208 3.224 0 7.466 0 12.3c0 .122.025.243.075.355v5.142c.007.863.432 1.668 1.14 2.159.541.388 1.19.596 1.857.593.333 0 .664-.05.982-.151l.104-.033c.802-.16 1.52-.602 2.025-1.247.531.366 1.16.562 1.804.561.333 0 .663-.051.98-.151l.106-.033c.686-.137 1.315-.48 1.802-.983.056.047.11.094.17.138.542.388 1.192.596 1.858.593.332 0 .663-.05.98-.15l.105-.034c.574-.116 1.11-.376 1.558-.755.071.073.146.142.225.207.534.434 1.201.67 1.89.666.195 0 .391-.018.584-.055l1.038-.2c1.074-.195 2.064-.71 2.842-1.478.556.805 1.474 1.28 2.45 1.268h2.95c.72.004 1.418-.251 1.967-.72.548.469 1.246.724 1.966.72h2.95c.752.008 1.48-.269 2.039-.775.671.496 1.446.833 2.266.985l1.045.201c.192.036.387.054.582.054.688.004 1.355-.232 1.89-.666.078-.065.153-.134.224-.207.448.38.984.639 1.558.755l.103.033c.318.1.65.151.982.151.666.003 1.316-.205 1.858-.593.06-.043.114-.091.17-.138.487.503 1.116.846 1.803.983l.102.032c.318.1.65.152.983.152.644 0 1.273-.195 1.804-.561.504.645 1.223 1.088 2.025 1.247l.104.033c.318.1.65.151.982.151.666.003 1.316-.205 1.858-.593.707-.491 1.132-1.296 1.14-2.159v-5.143c.049-.112.074-.233.074-.355 0-4.833-3.208-9.074-7.848-10.375zM4.99 16.926v.413c-.05.667-.567 1.202-1.23 1.273-.036.007-.071.016-.106.027l-.152.048c-.412.135-.864.067-1.219-.182-.238-.158-.385-.422-.396-.709v-4.815c.97-.261 2.009-.507 3.103-.734v4.68zm4.916-.444c-.058.661-.574 1.189-1.232 1.26-.034.007-.068.015-.102.025l-.155.05c-.412.134-.863.067-1.218-.182-.238-.159-.386-.422-.396-.709v-5.034c1.003-.181 2.042-.35 3.103-.502v5.092zm4.915-.448c-.05.666-.567 1.202-1.23 1.272-.035.007-.069.016-.103.026l-.155.049c-.412.135-.863.067-1.219-.182-.238-.158-.385-.422-.396-.708v-5.345c1-.125 2.037-.242 3.103-.347v5.235zm6.882-1.824c0 1.408-1.16 2.648-2.76 2.95l-1.04.199c-.343.069-.7-.016-.977-.232-.176-.135-.284-.343-.292-.566v-5.928c1.657-.138 3.355-.249 5.07-.332v3.91zm6.882 1.863c-.067.522-.537.896-1.06.843h-2.95c-.522.053-.992-.32-1.06-.843v-5.847c1.654-.058 3.353-.09 5.07-.096v5.943zm6.882 0c0 .074-.013.148-.037.218-.177.402-.585.652-1.023.625h-2.95c-.522.053-.991-.32-1.06-.843v-5.94c1.632.014 3.295.053 4.959.117l.111.005v5.818zm5.899-.04v.528c-.008.223-.116.43-.292.566-.276.215-.631.3-.974.232l-1.046-.2c-.668-.123-1.288-.431-1.79-.89.005-.065.016-.13.016-.196v-5.728c1.347.07 2.712.156 4.086.268v5.42zm4.916.458c-.01.286-.158.55-.396.708-.356.25-.809.317-1.222.181l-.152-.048c-.034-.01-.068-.019-.103-.026-.663-.07-1.18-.606-1.23-1.272v-5.26c1.084.105 2.122.22 3.103.342v5.375zm4.915.435c-.01.286-.158.55-.396.709-.356.249-.808.316-1.221.18l-.152-.048c-.034-.01-.068-.018-.102-.025-.656-.072-1.171-.597-1.232-1.256v-5.13c1.082.152 2.12.316 3.103.49v5.08zm4.916.87c-.01.287-.158.55-.396.709-.355.25-.807.317-1.219.182l-.152-.048c-.035-.011-.07-.02-.106-.027-.663-.07-1.18-.606-1.23-1.273v-5.143c1.096.224 2.134.465 3.103.72v4.88zm-3.825-7.572c-.007-.001-.013-.006-.02-.007-1.526-.287-3.195-.549-4.959-.778h-.003c-1.516-.203-3.182-.386-4.952-.545h-.002c-1.998-.174-3.995-.306-5.93-.393-.327-.018-.66-.031-.995-.044h-.001c-1.995-.077-3.99-.119-5.932-.123h-.371c-2.228 0-4.432.044-6.551.131-2.35.099-4.68.25-6.926.451h-.002c-1.726.159-3.392.345-4.953.553-1.715.228-3.384.496-4.96.796l-.024.008c-1.346.257-2.622.541-3.81.848.46-3.559 2.994-6.498 6.438-7.468 4.306-1.19 11.352-2.174 20.466-.12.06.014.12.021.181.022h.022c.092-.015.17-.011.25-.033 9.088-2.04 16.115-1.056 20.411.13 3.422.964 5.948 3.872 6.43 7.404-1.184-.299-2.46-.577-3.807-.832z" transform="translate(0 .452)"/>
    </g>
</svg>
