<svg xmlns="http://www.w3.org/2000/svg" width="57" height="58" viewBox="0 0 57 58">
    <path d="M1.024 36.056c.244-.249.612-.56 1.285-.56.429-.621.858-1.243 1.47-1.803-.061-.124-.061-.31-.061-.435 0-.124 0-.31-.062-.56 0-.186-.06-.434-.06-.745-.123 0-.184.062-.307.062-.429 0-.857-.186-1.347-.56-1.47-.994-2.204-4.91-1.776-7.397.184-.87.49-1.616.919-2.176-.061-1.927.061-4.227.122-6.9l.123-2.114c0-1.243.796-3.419 2.449-5.222C8.065 2.86 18.29.124 19.27 0h.245C21.72.249 54.6 7.087 55.702 8.02c.062 0 .123.061.245.124.306.186 1.164.746 1.041 6.9-.061 1.803-.245 6.092-1.163 7.522-.184.31-.674.684-1.409 1.243.43 1.306.368 2.611-.183 3.73-.735 1.43-1.592 2.114-2.756 2.114-.367 0-.734-.062-1.04-.187-.245-.062-.552-.124-.613-.062-.184.062-.428.31-.735.56-.612.559-1.53 1.367-3.061 1.367h-.49c-.245 0-.551-.124-.796-.373-.673 1.368-1.47 2.052-2.572 2.052-.367 0-.734-.063-.98-.187-.183-.062-.367-.124-.49-.124-.183 0-.367.31-.611.497-.613.56-1.409 1.368-2.817 1.368h-.49c-.429-.062-.918-.435-1.286-.933-1.102 2.55-3.98 3.606-4.102 3.606l-.306.124-.306-.124c-.062-.062-1.592-.622-2.633-1.927-1.225 1.057-3.43 1.18-5.572 1.18h-.796c-.307 0-.613-.123-.858-.372l-.183.186c-.062.063-.123.063-.184.125-.245.435-.49.746-.857.87-.368.124-.857.249-1.531.435-.673.187-1.592.435-2.572.746.551.062.919.187.98.187l.429.062.183.373c0 .062.062.124.062.124l.122-.124c.49-.373 1.347-.56 2.572-.56 1.775 0 3.918.373 3.98.435l.367.063.245.31c.122.187.184.373.306.56.919-.746 2.266-1.678 2.45-1.865l.244-.186h.306c1.409.062 2.327.621 2.878 1.305.429-.497.98-.746 1.592-.746.306 0 .613.062.857.124.123 0 .245.063.307.063.122-.063.306-.187.428-.373.49-.498 1.286-1.182 2.817-1.057.122 0 .245.062.306.124.061-.124.061-.249.122-.373.613-1.305 1.409-1.927 2.388-1.927.368 0 .674.062.919.124.122.062.306.062.367.062.123-.062.306-.248.551-.435.551-.56 1.409-1.43 3.062-1.243.245 0 .428.124.673.31.613-1.118 1.409-1.678 2.388-1.678.368 0 .735.187.98.249.184.062.367.249.49.249.184-.622.367-.435.612-.622.674-.622 1.531-1.678 3.307-1.43.734.062 1.47.995 2.02 2.176.306-.124.674-.062.919.124.306.187 1.163.746 1.04 6.9-.06 1.803-.244 6.093-1.163 7.523C54.355 49.359 38.13 58 20.556 58c-4.653 0-9.43-.622-14.022-2.114C1.268 54.146.717 51.411.901 44.075c-.245-.31-.49-.684-.612-1.243-.674-2.176-.061-5.906.735-6.776zm.98-11.812c-.49 2.238.428 5.222.918 5.595l.06.062c.062-.186.123-.31.123-.497.123-.373.245-.87.429-1.43.061-.124.061-.186.122-.31.062-.498.123-.995.307-1.43.122-1.368 0-2.736-.429-3.357-.122-.187-.184-.187-.245-.187h-.122c-.551.125-.98.622-1.164 1.554zm3.183-15.23c-1.04 1.181-2.265 2.984-1.96 4.662.246 1.368 1.47 2.611 3.613 3.668 2.082 1.057 5.94 1.616 11.083 1.616 5.51 0 12.185-.683 18.186-1.802 9.735-1.803 16.103-5.844 17.879-7.771-2.572-.746-33.37-7.211-34.534-7.46h-.061C17.8 2.237 8.677 5.035 5.187 9.014zm40.596 20.452h.245c.857 0 1.286-.373 1.837-.87.428-.373.796-.746 1.408-.933.184-.062.429-.124.674-.124.367 0 .673.062.98.124.244.063.49.125.673.125.184 0 .55 0 1.102-1.12.429-.87.306-2.175-.367-3.294-.674-1.181-2.143-2.424-3.98-2.238-2.205.249-3.552 1.181-3.858 2.86-.612 2.3.735 5.035 1.286 5.47zm-8.634 3.295h.123c.673 0 1.04-.31 1.53-.808.368-.311.735-.746 1.287-.933.183-.062.428-.124.612-.124.306 0 .612.062.918.124.184.063.368.125.551.125.123 0 .429 0 .919-.995.184-.373.245-.746.245-1.181-.306-.622-.551-1.368-.674-2.114-.796-1.305-2.082-1.989-3.367-1.865-1.899.187-3 1.057-3.368 2.487-.49 2.114.673 4.787 1.224 5.284zm-8.204-2.176c.122.746.183 1.492.183 2.238.123 1.43 1.409 2.238 2.02 2.549.674-.31 2.328-1.243 2.817-2.798.43-1.43-.244-4.351-1.408-5.967-.428-.56-.857-.933-1.163-.933h-.061c-2.021.249-2.45 2.3-2.388 4.911zm-6.797 4.04h.429c1.163 0 3.673 0 4.47-.745.122-.124.183-.497.183-.995-.061-.621-.122-1.367-.184-2.238-.122-.746-.367-1.554-.673-2.238-.306-.683-.919-1.492-1.653-1.492-.123 0-.184 0-.306.063-.98.248-1.654.994-2.144 2.3-.734 2.113-.428 4.6-.122 5.346zm-.735-7.956c.061.124.061.248.123.373.367-.808 1.224-1.554 2.449-1.865.245-.062.49-.124.735-.124 1.102 0 2.082.621 2.816 1.74.551-1.492 1.592-2.735 3.552-2.984h.306c.673 0 1.653.311 2.694 1.679.122.186.306.435.429.621.734-1.678 2.326-2.735 4.592-2.984 1.224-.124 2.388.187 3.429.933.367-2.673 2.326-4.414 5.572-4.725.183 0 .367-.062.612-.062 1.898 0 3.796 1.057 4.96 2.798.367-.25.612-.436.734-.622.735-1.181 1.041-7.584.735-10.568-1.102 1.057-2.878 2.3-5.082 3.419-2.755 1.43-7.348 3.419-13.532 4.6-6.123 1.181-12.92 1.865-18.553 1.865-3.796 0-8.94-.31-11.878-1.803-.98-.497-1.837-1.056-2.51-1.678v.186c-.184-.186-.307-.31-.43-.497-.06 1.43-.06 2.735-.06 3.792.857-.124 1.591.187 2.142.933.245.373.429.87.613 1.367.918-.808 2.02-1.18 3.429-1.119.98.062 1.837.56 2.51 1.368.245.31.49.746.674 1.181.796-1.057 2.081-1.678 4.163-1.803 2.143-.124 3.797 1.306 4.776 3.979zM9.78 40.532c0-.063-.06-.187-.06-.249-.98-.435-2.572-1.057-3.368-1.057h-.184c-.368.497-1.041 2.86-.551 4.787.306 1.057.857 1.74 1.775 1.99.184.061.307.061.43.061.428 0 .856-.31 1.224-.932.122-.249.245-.435.306-.746-.123-1.306.061-2.798.428-3.854zm-4.224-3.73l.183.124.061.187c.062.062.062.186.123.248.122 0 .306-.062.429-.062 1.53 0 3.796 1.057 4.408 1.368.98-.622 2.02-1.057 3-1.43-.918-.187-1.775-.56-2.388-1.12-.49.25-1.04.374-1.714.374-1.102 0-2.45-.373-3.735-.995-.306-.124-.551-.31-.796-.435-.306.31-.551.622-.796.995.612.31 1.04.621 1.225.746zm5.204-5.222c.123-1.616.184-3.046.429-4.29-.184-1.119-.49-2.113-1.041-2.797-.368-.435-.735-.684-1.164-.684H8.74c-.796 0-1.47.249-1.96.808-1.714 1.865-1.408 6.279-1.286 7.895 0 .187 0 .373.062.56.428.497 2.51 1.554 4.102 1.554.429 0 .674-.062.918-.187v-.373c.062-.87.123-1.74.184-2.486zm5.45 4.04c1.653 0 3-.372 3.429-.745.183-.187.367-.684.428-1.368-.061-.87-.061-1.927.061-2.984-.06-1.057-.306-2.238-.673-3.295-.674-1.74-1.592-2.61-2.755-2.61h-.123c-3.49.248-3.674 1.678-4.041 7.086-.061.808-.123 1.616-.184 2.549 0 .186.061.31.184.435.49.56 1.96.933 3.674.933zm-.429 4.85c-.612-.125-1.776-.311-2.694-.311-.919 0-1.163.186-1.163.186-.368.435-1.103 3.17-.43 5.035.368 1.12 1.103 1.368 1.593 1.43h.306c.245 0 1.041 0 1.715-1.243.857-1.616.918-4.04.673-5.098zm7.47.31c-.673-.124-2.082-.31-3.245-.31-1.163 0-1.47.186-1.47.186-.367.31-1.102 2.673-.55 4.476.306.994.979 1.554 1.959 1.678h.367c.98 0 1.776-.56 2.327-1.616.857-1.492.918-3.481.612-4.414zm6.674.498c-.245-.684-.673-1.244-1.775-1.43-.674.497-1.96 1.43-2.45 1.865-.183.621-.06 3.046.858 4.476.428.683.796.683.918.683h.245c.735-.124 1.286-.559 1.714-1.305.429-.684.613-1.554.735-2.238-.245-.684-.306-1.368-.245-2.051zm6.552-2.114c-.49 0-.796.186-1.225.56-.306.248-.612.559-1.102.745-.428.125-.918.063-1.286 0-.183-.062-.306-.062-.428-.062-.184 0-.368.249-.613.684-.306.56-.183 1.43.307 2.176.428.746 1.285 1.492 2.388 1.492h.244c1.47-.187 2.327-.746 2.572-1.74.429-1.555-.428-3.42-.857-3.855zm8.266-2.922c-.184-.373-.367-.621-.49-.746-.612-.062-.918.249-1.47.746-.305.311-.673.684-1.163.87-.428.187-1.04.063-1.408 0-.184-.062-.367-.062-.49-.062-.245 0-.49.311-.735.87-.367.747-.183 1.928.368 2.922.735 1.182 1.837 1.803 3 1.679 1.653-.187 2.633-.933 3-2.176.123-.373.123-.808.123-1.243-.49-.933-.735-1.927-.735-2.86zm7.96-3.73c-.735-.062-1.102.249-1.653.808-.368.311-.735.746-1.286.933-.49.186-1.102.062-1.53-.062-.185-.062-.368-.125-.552-.125-.122 0-.429 0-.918.995-.429.87-.245 2.176.428 3.233.735 1.18 1.898 1.927 3.062 1.927h.306c1.898-.187 3-1.057 3.368-2.487.49-2.051-.674-4.724-1.225-5.222zM7.208 54.27c4.47 1.43 9.062 2.052 13.532 2.052 17.083 0 32.513-8.455 33.554-9.885.49-.808.796-3.978.857-6.838-.796 1.368-2.327 2.238-4.347 2.487h-.551c-1.164 0-2.266-.435-3.184-1.181-.551 1.865-2.143 3.046-4.47 3.294h-.49c-1.04 0-2.02-.373-2.878-.994-.428 1.865-1.898 3.046-4.163 3.294h-.429c-1.102 0-2.143-.435-3-1.243-.123.373-.306.808-.551 1.181-.674 1.12-1.715 1.865-2.878 2.114-.184.062-.429.062-.612.062-.735 0-2.144-.31-3.062-2.61-.061-.063-.061-.187-.061-.25 0 .063-.061.125-.061.187-.919 1.678-2.327 2.61-3.98 2.61-.184 0-.368 0-.613-.061-1.408-.187-2.51-.933-3.122-2.114-.796 1.368-1.96 2.114-3.307 2.114-.184 0-.367 0-.551-.062-1.163-.187-2.082-.809-2.633-1.803-.796.87-1.653 1.119-2.265 1.119-.307 0-.674-.062-.98-.187-1.286-.373-2.204-1.243-2.694-2.486-.245.062-.49.124-.735.124-.184 0-.367 0-.551-.062-.245 6.465.429 7.895 4.225 9.138zM2.187 42.52c.306.747.673.871.98.933h.183c.062 0 .184 0 .306-.062-.183-1.616.184-3.481.735-4.662-.061-.249-.122-.435-.183-.622-.552-.373-1.348-.746-1.837-.808-.368.684-.858 3.543-.184 5.222z" opacity=".32"/>
</svg>
