<svg xmlns="http://www.w3.org/2000/svg" width="18" height="18" viewBox="0 0 18 18">
    <path d="M17.704 16.285l-3.399-3.39c1.097-1.396 1.692-3.121 1.69-4.898C15.995 3.581 12.415 0 7.997 0 3.581 0 0 3.58 0 7.997s3.58 7.998 7.997 7.998c1.777.002 3.502-.593 4.899-1.69l3.389 3.4c.187.189.443.295.71.295.266 0 .522-.106.71-.296.189-.187.295-.443.295-.71 0-.266-.106-.522-.296-.71zM2 7.997C2 4.685 4.685 2 7.997 2c3.313 0 5.998 2.686 5.998 5.998 0 3.313-2.685 5.998-5.998 5.998C4.685 13.995 2 11.31 2 7.997z"/>
</svg>
