<svg xmlns="http://www.w3.org/2000/svg" width="58" height="20" viewBox="0 0 58 20">
    <path d="M50.152 1.375C45.678.14 38.39-.888 29.002 1.19 19.616-.89 12.324.14 7.848 1.375 3.208 2.676 0 6.917 0 11.75c0 .123.025.244.075.356v5.142c.007.862.432 1.667 1.14 2.158.541.388 1.19.596 1.857.594.333 0 .664-.051.982-.152l.104-.033c.802-.159 1.52-.601 2.025-1.247.531.366 1.16.562 1.804.562.333 0 .663-.051.98-.152l.106-.033c.686-.137 1.315-.48 1.802-.983.056.047.11.095.17.138.542.389 1.192.596 1.858.594.332 0 .663-.05.98-.15l.105-.034c.574-.116 1.11-.376 1.558-.756.071.074.146.143.225.207.534.435 1.201.67 1.89.667.195 0 .391-.019.584-.055l1.038-.2c1.074-.196 2.064-.711 2.842-1.479.556.806 1.474 1.281 2.45 1.269h2.95c.72.004 1.418-.252 1.967-.72.548.468 1.246.724 1.966.72h2.95c.752.007 1.48-.27 2.039-.775.671.496 1.446.832 2.266.984l1.045.202c.192.036.387.054.582.054.688.003 1.355-.232 1.89-.667.078-.064.153-.133.224-.207.448.38.984.64 1.558.756l.103.032c.318.1.65.152.982.152.666.002 1.316-.205 1.858-.594.06-.043.114-.09.17-.137.487.503 1.116.845 1.803.982l.102.033c.318.1.65.151.983.151.644 0 1.273-.195 1.804-.56.504.645 1.223 1.087 2.025 1.246l.104.033c.318.1.65.152.982.152.666.002 1.316-.206 1.858-.594.707-.49 1.132-1.296 1.14-2.158v-5.143c.049-.112.074-.233.074-.356 0-4.832-3.208-9.073-7.848-10.374zM4.99 16.378v.413c-.05.666-.567 1.202-1.23 1.272-.036.007-.071.016-.106.027l-.152.048c-.412.135-.864.068-1.219-.181-.238-.159-.385-.423-.396-.709v-4.816c.97-.26 2.009-.506 3.103-.734v4.68zm4.916-.444c-.058.66-.574 1.188-1.232 1.26-.034.006-.068.015-.102.025l-.155.049c-.412.135-.863.068-1.218-.182-.238-.158-.386-.422-.396-.708v-5.034c1.003-.181 2.042-.35 3.103-.502v5.092zm4.915-.449c-.05.667-.567 1.202-1.23 1.273-.035.007-.069.016-.103.026l-.155.049c-.412.134-.863.067-1.219-.182-.238-.159-.385-.422-.396-.708v-5.345c1-.126 2.037-.242 3.103-.348v5.235zm6.882-1.823c0 1.408-1.16 2.648-2.76 2.949l-1.04.2c-.343.068-.7-.016-.977-.232-.176-.136-.284-.344-.292-.567v-5.928c1.657-.137 3.355-.248 5.07-.331v3.91zm6.882 1.862c-.067.523-.537.897-1.06.844h-2.95c-.522.053-.992-.321-1.06-.844V9.677c1.654-.058 3.353-.09 5.07-.096v5.943zm6.882 0c0 .075-.013.148-.037.218-.177.403-.585.652-1.023.626h-2.95c-.522.053-.991-.321-1.06-.844V9.585c1.632.014 3.295.053 4.959.117l.111.004v5.818zm5.899-.039v.527c-.008.223-.116.431-.292.566-.276.216-.631.3-.974.233l-1.046-.201c-.668-.123-1.288-.43-1.79-.889.005-.065.016-.13.016-.197V9.797c1.347.07 2.712.155 4.086.267v5.421zm4.916.458c-.01.286-.158.55-.396.708-.356.25-.809.317-1.222.18l-.152-.047c-.034-.01-.068-.02-.103-.026-.663-.07-1.18-.606-1.23-1.273v-5.259c1.084.105 2.122.22 3.103.342v5.375zm4.915.435c-.01.286-.158.55-.396.708-.356.25-.808.316-1.221.18l-.152-.047c-.034-.01-.068-.019-.102-.025-.656-.072-1.171-.597-1.232-1.256v-5.13c1.082.152 2.12.316 3.103.49v5.08zm4.916.87c-.01.286-.158.55-.396.709-.355.249-.807.316-1.219.181l-.152-.048c-.035-.01-.07-.02-.106-.027-.663-.07-1.18-.606-1.23-1.272v-5.143c1.096.224 2.134.465 3.103.72v4.88zm-3.825-7.572c-.007-.002-.013-.006-.02-.007-1.526-.287-3.195-.55-4.959-.779h-.003c-1.516-.202-3.182-.385-4.952-.544h-.002c-1.998-.174-3.995-.307-5.93-.393-.327-.018-.66-.032-.995-.045h-.001c-1.995-.077-3.99-.118-5.932-.122h-.371c-2.228 0-4.432.044-6.551.131-2.35.099-4.68.25-6.926.451h-.002c-1.726.159-3.392.344-4.953.553-1.715.228-3.384.495-4.96.796-.009.001-.016.006-.024.008-1.346.257-2.622.54-3.81.847.46-3.558 2.994-6.497 6.438-7.468C12.641 1.915 19.687.93 28.801 2.985c.06.013.12.02.181.022h.022c.092-.015.17-.011.25-.033 9.088-2.04 16.115-1.056 20.411.13 3.422.964 5.948 3.872 6.43 7.404-1.184-.299-2.46-.578-3.807-.832z" opacity=".32"/>
</svg>
